<mxfile host="app.diagrams.net" agent="Mozilla/5.0 (Windows NT 10.0; Win64; x64) AppleWebKit/537.36 (KHTML, like Gecko) Chrome/138.0.0.0 Safari/537.36" version="28.2.0">
  <diagram name="Page-1" id="2B_2AXbRzVLO9jd4NIjQ">
    <mxGraphModel dx="1694" dy="1079" grid="1" gridSize="10" guides="1" tooltips="1" connect="1" arrows="1" fold="1" page="1" pageScale="1" pageWidth="827" pageHeight="1169" math="0" shadow="0">
      <root>
        <mxCell id="0" />
        <mxCell id="1" parent="0" />
        <mxCell id="cIbP2g6fh4JZdKiTH82Q-1" value="" style="swimlane;startSize=0;" vertex="1" parent="1">
          <mxGeometry x="200" y="100" width="880" height="1270" as="geometry" />
        </mxCell>
        <mxCell id="cIbP2g6fh4JZdKiTH82Q-2" value="&lt;font style=&quot;font-size: 18px;&quot;&gt; logiciel de gestion de production&lt;/font&gt;" style="text;html=1;align=center;verticalAlign=middle;resizable=0;points=[];autosize=1;strokeColor=none;fillColor=none;" vertex="1" parent="cIbP2g6fh4JZdKiTH82Q-1">
          <mxGeometry x="290" y="15" width="280" height="40" as="geometry" />
        </mxCell>
        <mxCell id="cIbP2g6fh4JZdKiTH82Q-5" value="&lt;font style=&quot;font-size: 14px;&quot;&gt;importer&lt;br&gt;l’ordre de fabrication&lt;/font&gt;" style="ellipse;whiteSpace=wrap;html=1;" vertex="1" parent="cIbP2g6fh4JZdKiTH82Q-1">
          <mxGeometry x="556" y="710" width="206" height="80" as="geometry" />
        </mxCell>
        <mxCell id="cIbP2g6fh4JZdKiTH82Q-9" value="&lt;font style=&quot;font-size: 14px;&quot;&gt;étudier&amp;nbsp;&lt;/font&gt;&lt;br style=&quot;font-size: 14px;&quot;&gt;&lt;span style=&quot;font-size: 14px;&quot;&gt;l’ordre de fabrication&lt;/span&gt;" style="ellipse;whiteSpace=wrap;html=1;" vertex="1" parent="cIbP2g6fh4JZdKiTH82Q-1">
          <mxGeometry x="193.5" y="550" width="206" height="80" as="geometry" />
        </mxCell>
        <mxCell id="cIbP2g6fh4JZdKiTH82Q-11" value="&lt;font style=&quot;font-size: 14px;&quot;&gt;réaliser pgm simple&amp;nbsp;&lt;/font&gt;" style="ellipse;whiteSpace=wrap;html=1;" vertex="1" parent="cIbP2g6fh4JZdKiTH82Q-1">
          <mxGeometry x="60" y="730" width="160" height="80" as="geometry" />
        </mxCell>
        <mxCell id="cIbP2g6fh4JZdKiTH82Q-12" value="&lt;font style=&quot;font-size: 14px;&quot;&gt;réaliser pgm&amp;nbsp;complexe&amp;nbsp;&lt;/font&gt;" style="ellipse;whiteSpace=wrap;html=1;" vertex="1" parent="cIbP2g6fh4JZdKiTH82Q-1">
          <mxGeometry x="316" y="730" width="160" height="80" as="geometry" />
        </mxCell>
        <mxCell id="cIbP2g6fh4JZdKiTH82Q-13" value="" style="endArrow=classic;html=1;rounded=0;exitX=0.5;exitY=0;exitDx=0;exitDy=0;entryX=0;entryY=1;entryDx=0;entryDy=0;" edge="1" parent="cIbP2g6fh4JZdKiTH82Q-1" source="cIbP2g6fh4JZdKiTH82Q-11" target="cIbP2g6fh4JZdKiTH82Q-9">
          <mxGeometry width="50" height="50" relative="1" as="geometry">
            <mxPoint x="180" y="400" as="sourcePoint" />
            <mxPoint x="230" y="350" as="targetPoint" />
          </mxGeometry>
        </mxCell>
        <mxCell id="cIbP2g6fh4JZdKiTH82Q-14" value="" style="endArrow=classic;html=1;rounded=0;exitX=0.327;exitY=-0.004;exitDx=0;exitDy=0;exitPerimeter=0;" edge="1" parent="cIbP2g6fh4JZdKiTH82Q-1" source="cIbP2g6fh4JZdKiTH82Q-12">
          <mxGeometry width="50" height="50" relative="1" as="geometry">
            <mxPoint x="359" y="760" as="sourcePoint" />
            <mxPoint x="359" y="618" as="targetPoint" />
          </mxGeometry>
        </mxCell>
        <mxCell id="cIbP2g6fh4JZdKiTH82Q-15" value="&lt;font style=&quot;font-size: 14px;&quot;&gt;établir une liste des matières premières&lt;/font&gt;" style="ellipse;whiteSpace=wrap;html=1;" vertex="1" parent="cIbP2g6fh4JZdKiTH82Q-1">
          <mxGeometry x="156" y="1070" width="200" height="80" as="geometry" />
        </mxCell>
        <mxCell id="cIbP2g6fh4JZdKiTH82Q-22" value="&amp;lt;&amp;lt;extend&amp;gt;&amp;gt;" style="text;html=1;align=center;verticalAlign=middle;resizable=0;points=[];autosize=1;strokeColor=none;fillColor=none;" vertex="1" parent="cIbP2g6fh4JZdKiTH82Q-1">
          <mxGeometry x="335" y="850" width="90" height="30" as="geometry" />
        </mxCell>
        <mxCell id="cIbP2g6fh4JZdKiTH82Q-25" value="&lt;font style=&quot;font-size: 14px;&quot;&gt;établir&amp;nbsp;une demande de&amp;nbsp;&lt;/font&gt;&lt;div&gt;&lt;font style=&quot;font-size: 14px;&quot;&gt;sous-traitance&amp;nbsp;&lt;/font&gt;&lt;/div&gt;" style="ellipse;whiteSpace=wrap;html=1;" vertex="1" parent="cIbP2g6fh4JZdKiTH82Q-1">
          <mxGeometry x="356" y="890" width="200" height="80" as="geometry" />
        </mxCell>
        <mxCell id="cIbP2g6fh4JZdKiTH82Q-21" value="" style="endArrow=block;dashed=1;endFill=0;endSize=12;html=1;rounded=0;entryX=0.623;entryY=0.996;entryDx=0;entryDy=0;exitX=0.5;exitY=0;exitDx=0;exitDy=0;entryPerimeter=0;" edge="1" parent="cIbP2g6fh4JZdKiTH82Q-1" source="cIbP2g6fh4JZdKiTH82Q-25" target="cIbP2g6fh4JZdKiTH82Q-12">
          <mxGeometry width="160" relative="1" as="geometry">
            <mxPoint x="393" y="500" as="sourcePoint" />
            <mxPoint x="553" y="500" as="targetPoint" />
          </mxGeometry>
        </mxCell>
        <mxCell id="cIbP2g6fh4JZdKiTH82Q-29" value="&lt;font style=&quot;font-size: 14px;&quot;&gt;saisir le travail des employés&amp;nbsp;&lt;/font&gt;" style="ellipse;whiteSpace=wrap;html=1;" vertex="1" parent="cIbP2g6fh4JZdKiTH82Q-1">
          <mxGeometry x="280" y="70" width="200" height="80" as="geometry" />
        </mxCell>
        <mxCell id="cIbP2g6fh4JZdKiTH82Q-31" value="&lt;font style=&quot;font-size: 14px;&quot;&gt;enregistrer&amp;nbsp;&amp;nbsp;les réalisation&lt;/font&gt;&lt;div&gt;&lt;font size=&quot;3&quot;&gt;&amp;nbsp;d&#39;ateliers externes&lt;/font&gt;&lt;/div&gt;" style="ellipse;whiteSpace=wrap;html=1;" vertex="1" parent="cIbP2g6fh4JZdKiTH82Q-1">
          <mxGeometry x="210" y="170" width="196" height="80" as="geometry" />
        </mxCell>
        <mxCell id="cIbP2g6fh4JZdKiTH82Q-35" value="&lt;font style=&quot;font-size: 14px;&quot;&gt;établir&amp;nbsp;un état de production&amp;nbsp;&lt;/font&gt;" style="ellipse;whiteSpace=wrap;html=1;" vertex="1" parent="cIbP2g6fh4JZdKiTH82Q-1">
          <mxGeometry x="180" y="420" width="199" height="80" as="geometry" />
        </mxCell>
        <mxCell id="cIbP2g6fh4JZdKiTH82Q-39" value="&lt;font style=&quot;font-size: 14px;&quot;&gt;éditer des états statistiques&lt;/font&gt;" style="ellipse;whiteSpace=wrap;html=1;" vertex="1" parent="cIbP2g6fh4JZdKiTH82Q-1">
          <mxGeometry x="193.5" y="270" width="199" height="80" as="geometry" />
        </mxCell>
        <mxCell id="cIbP2g6fh4JZdKiTH82Q-43" value="&lt;font style=&quot;font-size: 14px;&quot;&gt;S&#39;authentifier&lt;/font&gt;" style="ellipse;whiteSpace=wrap;html=1;" vertex="1" parent="cIbP2g6fh4JZdKiTH82Q-1">
          <mxGeometry x="710" y="385" width="150" height="80" as="geometry" />
        </mxCell>
        <mxCell id="cIbP2g6fh4JZdKiTH82Q-45" value="&amp;lt;&amp;lt;includ&amp;gt;&amp;gt;" style="text;html=1;align=center;verticalAlign=middle;resizable=0;points=[];autosize=1;strokeColor=none;fillColor=none;" vertex="1" parent="cIbP2g6fh4JZdKiTH82Q-1">
          <mxGeometry x="450" y="1070" width="80" height="30" as="geometry" />
        </mxCell>
        <mxCell id="cIbP2g6fh4JZdKiTH82Q-46" value="" style="endArrow=block;dashed=1;endFill=0;endSize=12;html=1;rounded=0;exitX=1;exitY=0.5;exitDx=0;exitDy=0;entryX=0.04;entryY=0.75;entryDx=0;entryDy=0;entryPerimeter=0;" edge="1" parent="cIbP2g6fh4JZdKiTH82Q-1" source="cIbP2g6fh4JZdKiTH82Q-9" target="cIbP2g6fh4JZdKiTH82Q-43">
          <mxGeometry width="160" relative="1" as="geometry">
            <mxPoint x="380" y="970" as="sourcePoint" />
            <mxPoint x="540" y="970" as="targetPoint" />
          </mxGeometry>
        </mxCell>
        <mxCell id="cIbP2g6fh4JZdKiTH82Q-47" value="&amp;lt;&amp;lt;includ&amp;gt;&amp;gt;" style="text;html=1;align=center;verticalAlign=middle;resizable=0;points=[];autosize=1;strokeColor=none;fillColor=none;" vertex="1" parent="cIbP2g6fh4JZdKiTH82Q-1">
          <mxGeometry x="530" y="640" width="80" height="30" as="geometry" />
        </mxCell>
        <mxCell id="cIbP2g6fh4JZdKiTH82Q-51" value="" style="endArrow=block;dashed=1;endFill=0;endSize=12;html=1;rounded=0;exitX=0.97;exitY=0.675;exitDx=0;exitDy=0;exitPerimeter=0;entryX=0.087;entryY=0.167;entryDx=0;entryDy=0;entryPerimeter=0;" edge="1" parent="cIbP2g6fh4JZdKiTH82Q-1" source="cIbP2g6fh4JZdKiTH82Q-39" target="cIbP2g6fh4JZdKiTH82Q-43">
          <mxGeometry width="160" relative="1" as="geometry">
            <mxPoint x="380" y="570" as="sourcePoint" />
            <mxPoint x="540" y="570" as="targetPoint" />
          </mxGeometry>
        </mxCell>
        <mxCell id="cIbP2g6fh4JZdKiTH82Q-52" value="&amp;lt;&amp;lt;includ&amp;gt;&amp;gt;" style="text;html=1;align=center;verticalAlign=middle;resizable=0;points=[];autosize=1;strokeColor=none;fillColor=none;" vertex="1" parent="cIbP2g6fh4JZdKiTH82Q-1">
          <mxGeometry x="430" y="510" width="80" height="30" as="geometry" />
        </mxCell>
        <mxCell id="cIbP2g6fh4JZdKiTH82Q-53" value="" style="endArrow=block;dashed=1;endFill=0;endSize=12;html=1;rounded=0;entryX=0;entryY=0.5;entryDx=0;entryDy=0;" edge="1" parent="cIbP2g6fh4JZdKiTH82Q-1" source="cIbP2g6fh4JZdKiTH82Q-35" target="cIbP2g6fh4JZdKiTH82Q-43">
          <mxGeometry width="160" relative="1" as="geometry">
            <mxPoint x="380" y="570" as="sourcePoint" />
            <mxPoint x="540" y="570" as="targetPoint" />
          </mxGeometry>
        </mxCell>
        <mxCell id="cIbP2g6fh4JZdKiTH82Q-55" value="" style="endArrow=block;dashed=1;endFill=0;endSize=12;html=1;rounded=0;exitX=1;exitY=0.5;exitDx=0;exitDy=0;entryX=0.38;entryY=0.033;entryDx=0;entryDy=0;entryPerimeter=0;" edge="1" parent="cIbP2g6fh4JZdKiTH82Q-1" source="cIbP2g6fh4JZdKiTH82Q-31" target="cIbP2g6fh4JZdKiTH82Q-43">
          <mxGeometry width="160" relative="1" as="geometry">
            <mxPoint x="380" y="570" as="sourcePoint" />
            <mxPoint x="540" y="570" as="targetPoint" />
          </mxGeometry>
        </mxCell>
        <mxCell id="cIbP2g6fh4JZdKiTH82Q-56" value="&amp;lt;&amp;lt;includ&amp;gt;&amp;gt;" style="text;html=1;align=center;verticalAlign=middle;resizable=0;points=[];autosize=1;strokeColor=none;fillColor=none;" vertex="1" parent="cIbP2g6fh4JZdKiTH82Q-1">
          <mxGeometry x="476" y="220" width="80" height="30" as="geometry" />
        </mxCell>
        <mxCell id="cIbP2g6fh4JZdKiTH82Q-57" value="" style="endArrow=block;dashed=1;endFill=0;endSize=12;html=1;rounded=0;exitX=1;exitY=0.5;exitDx=0;exitDy=0;entryX=0.927;entryY=0.175;entryDx=0;entryDy=0;entryPerimeter=0;" edge="1" parent="cIbP2g6fh4JZdKiTH82Q-1" source="cIbP2g6fh4JZdKiTH82Q-29" target="cIbP2g6fh4JZdKiTH82Q-43">
          <mxGeometry width="160" relative="1" as="geometry">
            <mxPoint x="380" y="270" as="sourcePoint" />
            <mxPoint x="540" y="260" as="targetPoint" />
          </mxGeometry>
        </mxCell>
        <mxCell id="cIbP2g6fh4JZdKiTH82Q-54" value="&amp;lt;&amp;lt;includ&amp;gt;&amp;gt;" style="text;html=1;align=center;verticalAlign=middle;resizable=0;points=[];autosize=1;strokeColor=none;fillColor=none;" vertex="1" parent="cIbP2g6fh4JZdKiTH82Q-1">
          <mxGeometry x="396" y="340" width="80" height="30" as="geometry" />
        </mxCell>
        <mxCell id="cIbP2g6fh4JZdKiTH82Q-61" value="" style="endArrow=block;dashed=1;endFill=0;endSize=12;html=1;rounded=0;exitX=0.965;exitY=0.713;exitDx=0;exitDy=0;exitPerimeter=0;" edge="1" parent="cIbP2g6fh4JZdKiTH82Q-1" source="cIbP2g6fh4JZdKiTH82Q-9" target="cIbP2g6fh4JZdKiTH82Q-5">
          <mxGeometry width="160" relative="1" as="geometry">
            <mxPoint x="420" y="690" as="sourcePoint" />
            <mxPoint x="580" y="690" as="targetPoint" />
          </mxGeometry>
        </mxCell>
        <mxCell id="cIbP2g6fh4JZdKiTH82Q-64" value="" style="endArrow=block;dashed=1;endFill=0;endSize=12;html=1;rounded=0;exitX=0.5;exitY=1;exitDx=0;exitDy=0;entryX=0.562;entryY=-0.012;entryDx=0;entryDy=0;entryPerimeter=0;" edge="1" parent="cIbP2g6fh4JZdKiTH82Q-1" source="cIbP2g6fh4JZdKiTH82Q-9" target="cIbP2g6fh4JZdKiTH82Q-15">
          <mxGeometry width="160" relative="1" as="geometry">
            <mxPoint x="380" y="940" as="sourcePoint" />
            <mxPoint x="540" y="940" as="targetPoint" />
          </mxGeometry>
        </mxCell>
        <mxCell id="cIbP2g6fh4JZdKiTH82Q-3" value="&lt;font style=&quot;font-size: 14px;&quot;&gt;l’agent&lt;/font&gt;" style="shape=umlActor;verticalLabelPosition=bottom;verticalAlign=top;html=1;outlineConnect=0;" vertex="1" parent="1">
          <mxGeometry x="70" y="240" width="50" height="80" as="geometry" />
        </mxCell>
        <mxCell id="cIbP2g6fh4JZdKiTH82Q-4" value="&lt;font style=&quot;font-size: 14px;&quot;&gt;chef d’atelier&lt;/font&gt;" style="shape=umlActor;verticalLabelPosition=bottom;verticalAlign=top;html=1;outlineConnect=0;" vertex="1" parent="1">
          <mxGeometry x="70" y="940" width="40" height="80" as="geometry" />
        </mxCell>
        <mxCell id="cIbP2g6fh4JZdKiTH82Q-7" value="&lt;font style=&quot;font-size: 14px;&quot;&gt;logiciel commercial&lt;/font&gt;" style="shape=umlActor;verticalLabelPosition=bottom;verticalAlign=top;html=1;outlineConnect=0;" vertex="1" parent="1">
          <mxGeometry x="1201" y="620" width="40" height="80" as="geometry" />
        </mxCell>
        <mxCell id="cIbP2g6fh4JZdKiTH82Q-8" value="" style="endArrow=none;html=1;rounded=0;entryX=1;entryY=0.5;entryDx=0;entryDy=0;" edge="1" parent="1" source="cIbP2g6fh4JZdKiTH82Q-7" target="cIbP2g6fh4JZdKiTH82Q-5">
          <mxGeometry width="50" height="50" relative="1" as="geometry">
            <mxPoint x="390" y="430" as="sourcePoint" />
            <mxPoint x="440" y="380" as="targetPoint" />
          </mxGeometry>
        </mxCell>
        <mxCell id="cIbP2g6fh4JZdKiTH82Q-10" value="" style="endArrow=none;html=1;rounded=0;entryX=0;entryY=0.5;entryDx=0;entryDy=0;" edge="1" parent="1" source="cIbP2g6fh4JZdKiTH82Q-4" target="cIbP2g6fh4JZdKiTH82Q-9">
          <mxGeometry width="50" height="50" relative="1" as="geometry">
            <mxPoint x="120" y="620" as="sourcePoint" />
            <mxPoint x="440" y="380" as="targetPoint" />
          </mxGeometry>
        </mxCell>
        <mxCell id="cIbP2g6fh4JZdKiTH82Q-18" value="&lt;font style=&quot;font-size: 14px;&quot;&gt;logiciel de gestion&lt;/font&gt;&lt;div&gt;&lt;font style=&quot;font-size: 14px;&quot;&gt;&amp;nbsp;de stock&lt;/font&gt;&lt;/div&gt;" style="shape=umlActor;verticalLabelPosition=bottom;verticalAlign=top;html=1;outlineConnect=0;" vertex="1" parent="1">
          <mxGeometry x="1201" y="1160" width="40" height="80" as="geometry" />
        </mxCell>
        <mxCell id="cIbP2g6fh4JZdKiTH82Q-19" value="" style="endArrow=none;html=1;rounded=0;exitX=1;exitY=0.5;exitDx=0;exitDy=0;" edge="1" parent="1" source="cIbP2g6fh4JZdKiTH82Q-15" target="cIbP2g6fh4JZdKiTH82Q-18">
          <mxGeometry width="50" height="50" relative="1" as="geometry">
            <mxPoint x="390" y="650" as="sourcePoint" />
            <mxPoint x="440" y="600" as="targetPoint" />
          </mxGeometry>
        </mxCell>
        <mxCell id="cIbP2g6fh4JZdKiTH82Q-20" value="&lt;font style=&quot;font-size: 14px;&quot;&gt;ateliers externes&lt;/font&gt;" style="shape=umlActor;verticalLabelPosition=bottom;verticalAlign=top;html=1;outlineConnect=0;" vertex="1" parent="1">
          <mxGeometry x="1191" y="930" width="50" height="80" as="geometry" />
        </mxCell>
        <mxCell id="cIbP2g6fh4JZdKiTH82Q-28" value="" style="endArrow=none;html=1;rounded=0;entryX=1;entryY=0.5;entryDx=0;entryDy=0;" edge="1" parent="1" source="cIbP2g6fh4JZdKiTH82Q-20" target="cIbP2g6fh4JZdKiTH82Q-25">
          <mxGeometry width="50" height="50" relative="1" as="geometry">
            <mxPoint x="390" y="790" as="sourcePoint" />
            <mxPoint x="440" y="740" as="targetPoint" />
          </mxGeometry>
        </mxCell>
        <mxCell id="cIbP2g6fh4JZdKiTH82Q-30" value="" style="endArrow=none;html=1;rounded=0;entryX=0;entryY=0.5;entryDx=0;entryDy=0;" edge="1" parent="1" source="cIbP2g6fh4JZdKiTH82Q-3" target="cIbP2g6fh4JZdKiTH82Q-29">
          <mxGeometry width="50" height="50" relative="1" as="geometry">
            <mxPoint x="390" y="220" as="sourcePoint" />
            <mxPoint x="440" y="170" as="targetPoint" />
          </mxGeometry>
        </mxCell>
        <mxCell id="cIbP2g6fh4JZdKiTH82Q-32" value="" style="endArrow=none;html=1;rounded=0;entryX=0;entryY=0.5;entryDx=0;entryDy=0;" edge="1" parent="1" source="cIbP2g6fh4JZdKiTH82Q-3" target="cIbP2g6fh4JZdKiTH82Q-31">
          <mxGeometry width="50" height="50" relative="1" as="geometry">
            <mxPoint x="390" y="240" as="sourcePoint" />
            <mxPoint x="440" y="190" as="targetPoint" />
          </mxGeometry>
        </mxCell>
        <mxCell id="cIbP2g6fh4JZdKiTH82Q-33" value="" style="endArrow=none;html=1;rounded=0;entryX=1;entryY=0.5;entryDx=0;entryDy=0;" edge="1" parent="1" source="cIbP2g6fh4JZdKiTH82Q-20" target="cIbP2g6fh4JZdKiTH82Q-31">
          <mxGeometry width="50" height="50" relative="1" as="geometry">
            <mxPoint x="650" y="300" as="sourcePoint" />
            <mxPoint x="700" y="250" as="targetPoint" />
          </mxGeometry>
        </mxCell>
        <mxCell id="cIbP2g6fh4JZdKiTH82Q-36" value="" style="endArrow=none;html=1;rounded=0;entryX=0;entryY=0.3333333333333333;entryDx=0;entryDy=0;entryPerimeter=0;exitX=1;exitY=0.313;exitDx=0;exitDy=0;exitPerimeter=0;" edge="1" parent="1" source="cIbP2g6fh4JZdKiTH82Q-35" target="cIbP2g6fh4JZdKiTH82Q-7">
          <mxGeometry width="50" height="50" relative="1" as="geometry">
            <mxPoint x="390" y="420" as="sourcePoint" />
            <mxPoint x="440" y="370" as="targetPoint" />
          </mxGeometry>
        </mxCell>
        <mxCell id="cIbP2g6fh4JZdKiTH82Q-37" value="" style="endArrow=none;html=1;rounded=0;entryX=0;entryY=0.5;entryDx=0;entryDy=0;exitX=1;exitY=0.3333333333333333;exitDx=0;exitDy=0;exitPerimeter=0;" edge="1" parent="1" source="cIbP2g6fh4JZdKiTH82Q-4" target="cIbP2g6fh4JZdKiTH82Q-35">
          <mxGeometry width="50" height="50" relative="1" as="geometry">
            <mxPoint x="390" y="420" as="sourcePoint" />
            <mxPoint x="440" y="370" as="targetPoint" />
          </mxGeometry>
        </mxCell>
        <mxCell id="cIbP2g6fh4JZdKiTH82Q-38" value="&lt;font style=&quot;font-size: 14px;&quot;&gt;Directeur&lt;/font&gt;" style="shape=umlActor;verticalLabelPosition=bottom;verticalAlign=top;html=1;outlineConnect=0;" vertex="1" parent="1">
          <mxGeometry x="1198.5" y="210" width="45" height="80" as="geometry" />
        </mxCell>
        <mxCell id="cIbP2g6fh4JZdKiTH82Q-40" value="" style="endArrow=none;html=1;rounded=0;entryX=0;entryY=0.5;entryDx=0;entryDy=0;" edge="1" parent="1" source="cIbP2g6fh4JZdKiTH82Q-3" target="cIbP2g6fh4JZdKiTH82Q-39">
          <mxGeometry width="50" height="50" relative="1" as="geometry">
            <mxPoint x="120" y="299" as="sourcePoint" />
            <mxPoint x="440" y="380" as="targetPoint" />
          </mxGeometry>
        </mxCell>
        <mxCell id="cIbP2g6fh4JZdKiTH82Q-41" value="" style="endArrow=none;html=1;rounded=0;exitX=1;exitY=0.5;exitDx=0;exitDy=0;" edge="1" parent="1" source="cIbP2g6fh4JZdKiTH82Q-39" target="cIbP2g6fh4JZdKiTH82Q-38">
          <mxGeometry width="50" height="50" relative="1" as="geometry">
            <mxPoint x="390" y="430" as="sourcePoint" />
            <mxPoint x="440" y="380" as="targetPoint" />
          </mxGeometry>
        </mxCell>
        <mxCell id="cIbP2g6fh4JZdKiTH82Q-42" value="" style="endArrow=classic;html=1;rounded=0;exitX=0.5;exitY=0;exitDx=0;exitDy=0;exitPerimeter=0;" edge="1" parent="1" source="cIbP2g6fh4JZdKiTH82Q-4">
          <mxGeometry width="50" height="50" relative="1" as="geometry">
            <mxPoint x="390" y="730" as="sourcePoint" />
            <mxPoint x="90" y="360" as="targetPoint" />
          </mxGeometry>
        </mxCell>
        <mxCell id="cIbP2g6fh4JZdKiTH82Q-58" value="&amp;lt;&amp;lt;includ&amp;gt;&amp;gt;" style="text;html=1;align=center;verticalAlign=middle;resizable=0;points=[];autosize=1;strokeColor=none;fillColor=none;" vertex="1" parent="1">
          <mxGeometry x="720" y="208" width="80" height="30" as="geometry" />
        </mxCell>
        <mxCell id="cIbP2g6fh4JZdKiTH82Q-65" value="&amp;lt;&amp;lt;includ&amp;gt;&amp;gt;" style="text;html=1;align=center;verticalAlign=middle;resizable=0;points=[];autosize=1;strokeColor=none;fillColor=none;" vertex="1" parent="1">
          <mxGeometry x="400" y="1008" width="80" height="30" as="geometry" />
        </mxCell>
      </root>
    </mxGraphModel>
  </diagram>
</mxfile>
